<svg width="56" height="50" viewBox="0 0 56 50" fill="none" xmlns="http://www.w3.org/2000/svg">
<path d="M15.2698 3.46681C15.1479 3.35756 15.003 3.27087 14.8435 3.21172C14.6839 3.15258 14.5129 3.12213 14.3402 3.12213C14.1674 3.12213 13.9964 3.15258 13.8368 3.21172C13.6773 3.27087 13.5324 3.35756 13.4105 3.46681L6.44547 9.64942L3.96266 7.48927C3.84072 7.38002 3.69583 7.29333 3.5363 7.23419C3.37676 7.17504 3.20571 7.14459 3.03297 7.14459C2.86023 7.14459 2.68918 7.17504 2.52965 7.23419C2.37011 7.29333 2.22522 7.38002 2.10328 7.48927L0.386096 9.02442C0.263736 9.13329 0.16665 9.26266 0.100406 9.4051C0.034161 9.54755 6.10352e-05 9.70027 6.10352e-05 9.8545C6.10352e-05 10.0087 0.034161 10.1615 0.100406 10.3039C0.16665 10.4463 0.263736 10.5757 0.386096 10.6846L5.59125 15.3135C5.85107 15.534 6.19583 15.657 6.5543 15.657C6.91277 15.657 7.25753 15.534 7.51735 15.3135L9.2225 13.7881L17.1194 6.73829C17.3654 6.51843 17.5044 6.22082 17.5063 5.91002C17.5081 5.59922 17.3726 5.30031 17.1292 5.07813L15.2698 3.46681ZM15.2698 19.0127C15.1479 18.9035 15.003 18.8168 14.8435 18.7576C14.6839 18.6985 14.5129 18.668 14.3402 18.668C14.1674 18.668 13.9964 18.6985 13.8368 18.7576C13.6773 18.8168 13.5324 18.9035 13.4105 19.0127L6.44547 25.2354L3.96266 23.0772C3.84072 22.9679 3.69583 22.8812 3.5363 22.8221C3.37676 22.7629 3.20571 22.7325 3.03297 22.7325C2.86023 22.7325 2.68918 22.7629 2.52965 22.8221C2.37011 22.8812 2.22522 22.9679 2.10328 23.0772L0.386096 24.6094C0.263736 24.7183 0.16665 24.8476 0.100406 24.9901C0.034161 25.1325 6.10352e-05 25.2852 6.10352e-05 25.4395C6.10352e-05 25.5937 0.034161 25.7464 0.100406 25.8889C0.16665 26.0313 0.263736 26.1607 0.386096 26.2695L5.57813 30.9082C5.83776 31.1287 6.18234 31.2516 6.54063 31.2516C6.89891 31.2516 7.2435 31.1287 7.50313 30.9082L9.22032 29.376L17.1172 22.3232C17.3623 22.1049 17.5009 21.809 17.5027 21.4999C17.5045 21.1907 17.3695 20.8935 17.127 20.6729L15.2698 19.0127ZM7 35.9375C4.10266 35.9375 1.68547 38.0371 1.68547 40.625C1.68547 43.2129 4.10485 45.3125 7 45.3125C8.39239 45.3125 9.72775 44.8186 10.7123 43.9396C11.6969 43.0605 12.25 41.8682 12.25 40.625C12.25 39.3818 11.6969 38.1895 10.7123 37.3104C9.72775 36.4314 8.39239 35.9375 7 35.9375ZM54.25 37.5H22.75C22.2859 37.5 21.8408 37.6646 21.5126 37.9577C21.1844 38.2507 21 38.6481 21 39.0625V42.1875C21 42.6019 21.1844 42.9993 21.5126 43.2924C21.8408 43.5854 22.2859 43.75 22.75 43.75H54.25C54.7141 43.75 55.1593 43.5854 55.4874 43.2924C55.8156 42.9993 56 42.6019 56 42.1875V39.0625C56 38.6481 55.8156 38.2507 55.4874 37.9577C55.1593 37.6646 54.7141 37.5 54.25 37.5ZM54.25 6.25001H22.75C22.2859 6.25001 21.8408 6.41463 21.5126 6.70765C21.1844 7.00068 21 7.39811 21 7.81251V10.9375C21 11.3519 21.1844 11.7493 21.5126 12.0424C21.8408 12.3354 22.2859 12.5 22.75 12.5H54.25C54.7141 12.5 55.1593 12.3354 55.4874 12.0424C55.8156 11.7493 56 11.3519 56 10.9375V7.81251C56 7.39811 55.8156 7.00068 55.4874 6.70765C55.1593 6.41463 54.7141 6.25001 54.25 6.25001ZM54.25 21.875H22.75C22.2859 21.875 21.8408 22.0396 21.5126 22.3327C21.1844 22.6257 21 23.0231 21 23.4375V26.5625C21 26.9769 21.1844 27.3743 21.5126 27.6674C21.8408 27.9604 22.2859 28.125 22.75 28.125H54.25C54.7141 28.125 55.1593 27.9604 55.4874 27.6674C55.8156 27.3743 56 26.9769 56 26.5625V23.4375C56 23.0231 55.8156 22.6257 55.4874 22.3327C55.1593 22.0396 54.7141 21.875 54.25 21.875Z" fill="black"/>
</svg>
